<svg width="360" height="200" viewBox="0 0 360 200" fill="none" xmlns="http://www.w3.org/2000/svg">
<rect width="360" height="200" fill="white"/>
<path fill-rule="evenodd" clip-rule="evenodd" d="M69.1033 149.595L0 50H69.1033C92.5887 50 111.628 72.2952 111.628 99.7977C111.628 127.3 92.5887 149.595 69.1033 149.595ZM100.996 99.7977C100.996 118.525 89.2259 134.034 73.8748 136.731L61.1068 118.328C62.8432 112.524 63.7875 106.287 63.7875 99.7977C63.7875 85.4493 59.1812 72.3608 51.6057 62.4494H69.1033C86.7176 62.4494 100.996 79.1708 100.996 99.7977ZM53.1562 99.7977C53.1562 102.002 53.0167 104.167 52.7478 106.281L22.3359 62.4494H35.1234C45.9291 70.0741 53.1562 83.9476 53.1562 99.7977ZM146.076 88.5294C146.076 87.4619 145.673 86.6841 144.865 86.1961C142.885 85.0065 140.737 84.4118 138.419 84.4118C135.736 84.4118 133.327 85.1133 131.191 86.5163C129.055 87.8889 127.375 89.8105 126.151 92.281C124.952 94.7516 124.353 97.5425 124.353 100.654C124.353 104.161 124.991 107.15 126.268 109.621C127.544 112.091 129.25 113.967 131.386 115.248C133.522 116.499 135.866 117.124 138.419 117.124C140.711 117.124 142.873 116.529 144.904 115.34C145.295 115.126 145.595 114.821 145.803 114.425C146.011 114.028 146.115 113.586 146.115 113.098C146.115 112.427 145.92 111.802 145.529 111.222C145.06 110.551 144.487 110.216 143.81 110.216C143.446 110.216 143.029 110.338 142.56 110.582C141.388 111.283 140.008 111.634 138.419 111.634C135.736 111.634 133.561 110.704 131.894 108.843C130.253 106.983 129.433 104.253 129.433 100.654C129.433 98.549 129.797 96.6884 130.527 95.0719C131.256 93.4248 132.298 92.159 133.652 91.2745C135.007 90.3595 136.595 89.902 138.419 89.902C139.903 89.902 141.284 90.2527 142.56 90.9542C143.003 91.2288 143.446 91.366 143.888 91.366C144.54 91.366 145.073 91.0457 145.49 90.4052C145.881 89.7952 146.076 89.1699 146.076 88.5294ZM168.423 92.5098C167.979 91.9913 167.42 91.732 166.743 91.732C166.065 91.732 165.505 92.0065 165.063 92.5556C164.619 93.0741 164.398 93.7299 164.398 94.5229V94.5686C163.643 93.7451 162.718 93.0741 161.624 92.5556C160.53 92.0065 159.358 91.732 158.108 91.732C156.363 91.732 154.761 92.281 153.303 93.3791C151.87 94.4466 150.737 95.9564 149.903 97.9085C149.07 99.8301 148.653 102.011 148.653 104.451C148.653 106.891 149.07 109.072 149.903 110.993C150.763 112.915 151.922 114.425 153.381 115.523C154.839 116.59 156.467 117.124 158.264 117.124C159.488 117.124 160.648 116.819 161.742 116.209C162.861 115.569 163.747 114.806 164.398 113.922C164.424 114.715 164.646 115.371 165.063 115.889C165.505 116.407 166.065 116.667 166.743 116.667C167.42 116.667 167.979 116.407 168.423 115.889C168.865 115.34 169.087 114.669 169.087 113.876V94.5229C169.087 93.6993 168.865 93.0283 168.423 92.5098ZM162.992 109.941C161.924 111.375 160.543 112.091 158.85 112.091C157.157 112.091 155.777 111.375 154.709 109.941C153.667 108.477 153.146 106.647 153.146 104.451C153.146 102.255 153.68 100.425 154.748 98.9608C155.816 97.4967 157.183 96.7647 158.85 96.7647C160.543 96.7647 161.924 97.4967 162.992 98.9608C164.06 100.425 164.594 102.255 164.594 104.451C164.594 106.647 164.06 108.477 162.992 109.941ZM178.543 115.889C179.012 115.34 179.247 114.669 179.247 113.876V85.6013C179.247 84.8083 179.025 84.1525 178.582 83.634C178.14 83.085 177.593 82.8105 176.941 82.8105C176.264 82.8105 175.691 83.085 175.222 83.634C174.78 84.1525 174.558 84.8083 174.558 85.6013V113.876C174.558 114.669 174.78 115.34 175.222 115.889C175.665 116.407 176.212 116.667 176.863 116.667C177.54 116.667 178.101 116.407 178.543 115.889ZM214.156 94.5229C213.167 92.6623 211.383 91.732 208.804 91.732C207.267 91.732 205.887 92.2505 204.663 93.2876C203.465 94.3246 202.566 95.4837 201.967 96.7647C201.055 93.4096 198.958 91.732 195.676 91.732C194.348 91.732 193.137 92.1286 192.043 92.9216C190.975 93.6841 190.089 94.6144 189.386 95.7124V94.9804C189.386 94.1874 189.165 93.5316 188.722 93.0131C188.279 92.464 187.72 92.1895 187.042 92.1895C186.365 92.1895 185.805 92.464 185.362 93.0131C184.919 93.5316 184.698 94.1874 184.698 94.9804V113.876C184.698 114.669 184.919 115.34 185.362 115.889C185.805 116.407 186.365 116.667 187.042 116.667C187.72 116.667 188.279 116.407 188.722 115.889C189.165 115.34 189.386 114.669 189.386 113.876V102.163C189.386 100.608 189.79 99.3268 190.597 98.3203C191.431 97.2832 192.577 96.7647 194.036 96.7647C195.442 96.7647 196.419 97.2527 196.966 98.2288C197.539 99.1743 197.825 100.486 197.825 102.163V113.876C197.825 114.669 198.047 115.34 198.49 115.889C198.933 116.407 199.492 116.667 200.169 116.667C200.847 116.667 201.407 116.407 201.85 115.889C202.293 115.34 202.514 114.669 202.514 113.876V102.163C202.514 100.608 202.918 99.3268 203.725 98.3203C204.559 97.2832 205.705 96.7647 207.163 96.7647C208.569 96.7647 209.546 97.2527 210.093 98.2288C210.666 99.1743 210.953 100.486 210.953 102.163V113.876C210.953 114.669 211.174 115.34 211.617 115.889C212.06 116.407 212.62 116.667 213.297 116.667C213.975 116.667 214.534 116.407 214.977 115.889C215.42 115.34 215.641 114.669 215.641 113.876V102.163C215.641 98.8998 215.147 96.3529 214.156 94.5229ZM250.068 86.7908C248.322 85.3573 246.226 84.6405 243.777 84.6405H234.44C233.762 84.6405 233.19 84.915 232.721 85.4641C232.278 85.9825 232.057 86.6384 232.057 87.4314V113.876C232.057 114.669 232.278 115.34 232.721 115.889C233.19 116.407 233.762 116.667 234.44 116.667H243.777C246.226 116.667 248.322 115.965 250.068 114.562C251.839 113.129 253.18 111.207 254.092 108.797C255.03 106.357 255.498 103.643 255.498 100.654C255.498 97.6645 255.03 94.9652 254.092 92.5556C253.18 90.1155 251.839 88.1939 250.068 86.7908ZM248.661 108.386C247.489 110.399 245.731 111.405 243.387 111.405H236.94V89.902H243.387C245.705 89.902 247.45 90.9237 248.622 92.9673C249.82 94.9804 250.419 97.5425 250.419 100.654C250.419 103.765 249.833 106.342 248.661 108.386ZM272.409 92.5098C271.888 91.9913 271.237 91.732 270.456 91.732C269.18 91.732 267.981 92.0675 266.862 92.7386C265.741 93.3791 264.882 94.3246 264.283 95.5752V94.9804C264.283 94.1874 264.061 93.5316 263.619 93.0131C263.176 92.464 262.616 92.1895 261.939 92.1895C261.261 92.1895 260.701 92.464 260.259 93.0131C259.816 93.5316 259.595 94.1874 259.595 94.9804V113.876C259.595 114.669 259.816 115.34 260.259 115.889C260.701 116.407 261.261 116.667 261.939 116.667C262.616 116.667 263.176 116.407 263.619 115.889C264.061 115.34 264.283 114.669 264.283 113.876V103.033C264.283 101.66 264.478 100.486 264.869 99.5098C265.285 98.5033 265.807 97.756 266.432 97.268C267.057 96.7799 267.708 96.5359 268.385 96.5359C268.698 96.5359 268.984 96.5817 269.245 96.6732C269.531 96.7647 269.714 96.8257 269.792 96.8562C270.286 97.0697 270.729 97.1765 271.12 97.1765C271.693 97.1765 272.188 96.9477 272.605 96.4902C273.021 96.0022 273.23 95.2854 273.23 94.3399C273.23 93.6384 272.956 93.0283 272.409 92.5098ZM280.285 115.889C280.729 115.34 280.95 114.669 280.95 113.876V94.9804C280.95 94.1874 280.729 93.5316 280.285 93.0131C279.843 92.464 279.283 92.1895 278.605 92.1895C277.928 92.1895 277.369 92.464 276.925 93.0131C276.483 93.5316 276.261 94.1874 276.261 94.9804V113.876C276.261 114.669 276.483 115.34 276.925 115.889C277.369 116.407 277.928 116.667 278.605 116.667C279.283 116.667 279.843 116.407 280.285 115.889ZM276.691 88.7124C277.056 89.0479 277.681 89.2157 278.566 89.2157C279.478 89.2157 280.116 89.0632 280.481 88.7582C280.871 88.4227 281.067 87.8126 281.067 86.9281V86.0588C281.067 85.2048 280.885 84.61 280.52 84.2745C280.155 83.939 279.517 83.7712 278.605 83.7712C277.746 83.7712 277.121 83.939 276.73 84.2745C276.339 84.61 276.144 85.2048 276.144 86.0588V86.9281C276.144 87.7822 276.327 88.3769 276.691 88.7124ZM303.388 92.9673C302.972 92.4793 302.451 92.2353 301.826 92.2353C301.383 92.2048 300.98 92.342 300.615 92.6471C300.25 92.9521 299.964 93.3943 299.755 93.9739L294.402 108.386L289.011 93.9281C288.803 93.3791 288.49 92.9521 288.073 92.6471C287.657 92.342 287.201 92.1895 286.706 92.1895C286.055 92.1895 285.508 92.4488 285.065 92.9673C284.622 93.4554 284.401 94.0044 284.401 94.6144C284.401 95.1024 284.492 95.5904 284.674 96.0784L291.941 114.928C292.15 115.477 292.436 115.92 292.801 116.255C293.191 116.56 293.608 116.712 294.051 116.712L294.402 116.667C294.846 116.636 295.236 116.469 295.575 116.163C295.939 115.858 296.212 115.446 296.395 114.928L303.701 96.0784C303.91 95.5294 304.014 95.0719 304.014 94.7059C304.014 94.0044 303.805 93.4248 303.388 92.9673ZM311.458 115.889C311.9 115.34 312.122 114.669 312.122 113.876V94.9804C312.122 94.1874 311.9 93.5316 311.458 93.0131C311.014 92.464 310.455 92.1895 309.777 92.1895C309.1 92.1895 308.54 92.464 308.098 93.0131C307.654 93.5316 307.433 94.1874 307.433 94.9804V113.876C307.433 114.669 307.654 115.34 308.098 115.889C308.54 116.407 309.1 116.667 309.777 116.667C310.455 116.667 311.014 116.407 311.458 115.889ZM307.863 88.7124C308.228 89.0479 308.853 89.2157 309.738 89.2157C310.65 89.2157 311.288 89.0632 311.653 88.7582C312.044 88.4227 312.239 87.8126 312.239 86.9281V86.0588C312.239 85.2048 312.056 84.61 311.692 84.2745C311.327 83.939 310.689 83.7712 309.777 83.7712C308.918 83.7712 308.293 83.939 307.902 84.2745C307.511 84.61 307.316 85.2048 307.316 86.0588V86.9281C307.316 87.7822 307.499 88.3769 307.863 88.7124ZM333.623 94.5229C332.607 92.6623 330.771 91.732 328.114 91.732C326.759 91.732 325.509 92.1286 324.363 92.9216C323.243 93.7146 322.332 94.6601 321.628 95.7582V94.9804C321.628 94.1874 321.407 93.5316 320.964 93.0131C320.521 92.464 319.961 92.1895 319.284 92.1895C318.607 92.1895 318.047 92.464 317.604 93.0131C317.161 93.5316 316.94 94.1874 316.94 94.9804V113.876C316.94 114.669 317.161 115.34 317.604 115.889C318.047 116.407 318.607 116.667 319.284 116.667C319.961 116.667 320.521 116.407 320.964 115.889C321.407 115.34 321.628 114.669 321.628 113.876V102.163C321.628 100.608 322.058 99.3268 322.918 98.3203C323.777 97.2832 324.962 96.7647 326.473 96.7647C327.932 96.7647 328.96 97.2527 329.56 98.2288C330.159 99.1743 330.458 100.486 330.458 102.163V113.876C330.458 114.669 330.679 115.34 331.122 115.889C331.565 116.407 332.125 116.667 332.802 116.667C333.479 116.667 334.039 116.407 334.482 115.889C334.925 115.34 335.147 114.669 335.147 113.876V102.163C335.147 98.8998 334.639 96.3529 333.623 94.5229ZM359.202 92.5098C358.759 91.9913 358.199 91.732 357.522 91.732C356.845 91.732 356.284 92.0065 355.842 92.5556C355.399 93.0741 355.178 93.7299 355.178 94.5229V95.0261C354.474 94.1111 353.55 93.3333 352.404 92.6928C351.258 92.0523 350.02 91.732 348.692 91.732C346.895 91.732 345.254 92.281 343.769 93.3791C342.311 94.4466 341.152 95.9564 340.292 97.9085C339.459 99.8301 339.042 102.011 339.042 104.451C339.042 106.891 339.472 109.072 340.331 110.993C341.191 112.915 342.363 114.425 343.847 115.523C345.358 116.59 347.025 117.124 348.848 117.124C350.177 117.124 351.414 116.743 352.56 115.98C353.732 115.218 354.604 114.364 355.178 113.418V115.614C355.178 117.261 354.696 118.527 353.732 119.412C352.794 120.327 351.362 120.784 349.434 120.784C348.471 120.784 347.39 120.51 346.192 119.961C345.02 119.442 344.382 119.168 344.277 119.137C344.043 119.046 343.796 119 343.535 119C343.092 119 342.675 119.168 342.285 119.503C341.92 119.869 341.66 120.388 341.503 121.059C341.425 121.333 341.386 121.577 341.386 121.791C341.386 122.92 342.024 123.804 343.301 124.444C343.874 124.75 344.837 125.054 346.192 125.359C347.572 125.665 348.653 125.817 349.434 125.817C352.456 125.817 354.943 124.917 356.897 123.118C358.876 121.348 359.866 118.603 359.866 114.882V94.5229C359.866 93.6993 359.645 93.0283 359.202 92.5098ZM353.693 109.941C352.599 111.375 351.18 112.091 349.434 112.091C347.689 112.091 346.27 111.375 345.176 109.941C344.082 108.477 343.535 106.647 343.535 104.451C343.535 102.255 344.082 100.425 345.176 98.9608C346.27 97.4967 347.689 96.7647 349.434 96.7647C351.18 96.7647 352.599 97.4967 353.693 98.9608C354.813 100.425 355.373 102.255 355.373 104.451C355.373 106.647 354.813 108.477 353.693 109.941Z" fill="#17C45C"/>
</svg>
