<svg width="360" height="200" viewBox="0 0 360 200" fill="none" xmlns="http://www.w3.org/2000/svg">
<rect width="360" height="200" fill="white"/>
<path fill-rule="evenodd" clip-rule="evenodd" d="M290.479 12.2522C290.479 11.2285 289.902 10.2927 288.989 9.83487L271.025 0.825867C270.266 0.445424 269.374 0.445424 268.615 0.825867L180 45.2666L91.3847 0.825859C90.626 0.445417 89.7331 0.445417 88.9745 0.825859L71.0104 9.83486C70.0976 10.2927 69.5209 11.2285 69.5209 12.2522V102.342C69.5209 103.366 70.0976 104.302 71.0104 104.76L88.9745 113.769C89.7331 114.149 90.626 114.149 91.3846 113.769L162.036 78.3371L178.795 86.7417C179.554 87.1222 180.446 87.1222 181.205 86.7417L197.964 78.3371L268.615 113.769C269.374 114.149 270.266 114.149 271.025 113.769L288.989 104.76C289.902 104.302 290.479 103.366 290.479 102.342V12.2522ZM144.072 69.328L156.01 75.3153L90.1796 108.33L78.2408 102.342L144.072 69.328ZM138.046 66.3063L74.9101 97.9693V13.9226L87.485 7.6163V75.3153C87.485 76.252 87.9685 77.1219 88.763 77.6144C89.5573 78.1068 90.5494 78.1516 91.3847 77.7326L126.108 60.319L138.046 66.3063ZM92.8742 70.9423V7.61629L178.795 50.7056C179.554 51.0862 180.446 51.0862 181.205 50.7056L267.125 7.6163V70.9423L254.551 64.636V48.3427C254.551 48.3209 254.551 48.2989 254.551 48.277C254.551 48.2612 254.551 48.2454 254.551 48.2297V30.2703C254.551 29.3336 254.067 28.4637 253.273 27.9712C252.479 27.4788 251.487 27.434 250.652 27.8529L180 63.2846L109.348 27.8529C108.513 27.4339 107.521 27.4788 106.727 27.9712C105.933 28.4637 105.449 29.3336 105.449 30.2703V48.2296C105.448 48.2673 105.448 48.3051 105.449 48.3428V64.636L92.8742 70.9423ZM272.515 75.3153V7.6163L285.09 13.9226V97.9693L221.953 66.3063L233.892 60.319L268.615 77.7326C269.45 78.1516 270.443 78.1068 271.237 77.6144C272.032 77.1219 272.515 76.252 272.515 75.3153ZM215.928 69.328L281.759 102.342L269.82 108.33L203.99 75.3153L215.928 69.328ZM249.162 46.6179L232.687 54.8799L180 81.3026L127.315 54.881L127.313 54.8799L110.838 46.6179V34.6433L178.795 68.7237C179.554 69.1041 180.446 69.1041 181.205 68.7237L249.162 34.6433V46.6179ZM120.083 57.2973L110.838 52.6614V61.9332L120.083 57.2973ZM239.917 57.2973L249.162 52.6614V61.9333L239.917 57.2973ZM0.85733 185.946V138.772H5.81786L22.8812 179.865H23.2946L40.3578 138.772H45.3184V185.946H41.2765V147.87H40.909L25.0399 185.946H21.1358L5.26669 147.87H4.89925V185.946H0.85733ZM77.7571 180.348C76.2873 183.481 72.7047 186.752 66.8255 186.752C60.4181 186.752 55.228 182.882 55.228 176.064C55.228 169.062 60.8086 166.827 68.7776 165.837C69.4482 165.754 70.0853 165.679 70.6878 165.609C75.4089 165.056 78.0097 164.751 78.0097 162.382V161.552C78.0097 156.716 75.0472 153.766 69.6962 153.766C64.5979 153.766 61.4057 156.37 60.1197 159.411L56.2385 158.005C58.6269 152.224 64.1845 150.081 69.5814 150.081C74.9783 150.081 82.0976 152.431 82.0976 161.921V185.946H78.0097V180.348H77.7571ZM59.3158 176.249C59.3158 180.533 62.7606 182.998 67.3767 182.998C73.8988 182.998 78.0097 178.184 78.0097 172.378V167.265C76.8155 168.44 71.6713 169.084 68.7776 169.43C62.8065 170.168 59.3158 171.964 59.3158 176.249ZM97.0596 185.946H92.9717V138.772H97.0596V167.219H97.5647L114.1 150.565H119.267L104.179 165.722L120.186 185.946H114.95L101.124 168.417L97.0596 172.24V185.946ZM131.106 185.946H126.995V150.565H131.106V185.946ZM132.162 141.535C132.162 143.148 130.761 144.484 129.085 144.484C127.409 144.484 126.03 143.148 126.03 141.535C126.03 139.923 127.409 138.587 129.085 138.587C130.761 138.587 132.162 139.923 132.162 141.535ZM155.604 153.859C150.047 153.859 146.005 157.659 146.005 163.832V185.946H141.917V150.565H145.889V156.117H146.257C147.91 152.501 151.471 150.105 156.638 150.105C163.757 150.105 168.603 154.642 168.603 163.027V185.946H164.515V163.28C164.515 157.498 161.023 153.859 155.604 153.859ZM207.386 186.867C207.386 195.851 201.185 199.951 192.825 199.951C185.614 199.951 181.113 196.91 179.046 192.856L182.399 190.645C183.892 193.341 186.785 196.265 192.825 196.265C199.072 196.265 203.275 193.202 203.275 186.614V178.644H202.907C201.506 181.892 198.406 185.577 192.068 185.577C183.616 185.577 177.553 179.013 177.553 168.163C177.553 157.406 183.409 150.081 192.137 150.081C198.612 150.081 201.529 154.135 202.976 157.315H203.389V150.565H207.386V186.867ZM181.664 168.094C181.664 176.202 185.546 181.823 192.549 181.823C199.347 181.823 203.344 176.64 203.344 168.094C203.344 159.802 199.463 153.813 192.549 153.813C185.477 153.813 181.664 160.124 181.664 168.094ZM242.826 150.565H250.291V154.135H242.826V176.709C242.826 181.155 245.376 182.468 248.155 182.468C249.234 182.468 249.969 182.307 250.543 182.145L251.416 185.854C250.635 186.154 249.486 186.476 247.788 186.476C243.263 186.476 238.716 183.458 238.716 177.677V154.135H233.457V150.565H238.716V142.089H242.826V150.565ZM286.892 178.39C285.284 182.837 280.531 186.683 273.457 186.683C263.581 186.683 257.382 179.197 257.382 168.463C257.382 157.751 263.697 150.081 272.837 150.081C280.484 150.081 287.765 155.632 287.765 167.45V169.477H261.491C261.676 177.654 266.246 182.929 273.457 182.929C278.463 182.929 281.656 180.303 283.011 177.124L286.892 178.39ZM272.837 153.813C266.384 153.813 261.952 159.272 261.515 165.859H283.585C283.585 159.042 279.152 153.813 272.837 153.813ZM324.01 175.627C323.068 182.03 317.9 186.683 310.552 186.683C301.067 186.683 294.959 178.966 294.959 168.417C294.959 157.775 301.251 150.081 310.483 150.081C317.557 150.081 323.022 154.504 323.987 161.069H319.852C318.98 157.061 315.581 153.813 310.552 153.813C303.777 153.813 299.069 159.71 299.069 168.279C299.069 176.893 303.639 182.929 310.552 182.929C315.237 182.929 318.934 180.142 319.876 175.627H324.01ZM346.642 153.859C340.992 153.859 336.859 157.659 336.859 163.832V185.946H332.771V138.772H336.859V156.117H337.226C338.88 152.454 342.347 150.105 347.676 150.105C354.84 150.105 359.709 154.596 359.709 163.027V185.946H355.599V163.28C355.599 157.452 352.108 153.859 346.642 153.859Z" fill="#3142DD"/>
</svg>
