<svg width="45" height="45" viewBox="0 0 45 45" fill="none" xmlns="http://www.w3.org/2000/svg">
<path d="M22.5 0C10.0755 0 0 10.0755 0 22.5C0 34.9245 10.0755 45 22.5 45C34.9245 45 45 34.9245 45 22.5C45 10.0755 34.9245 0 22.5 0ZM22.9769 35.6002C22.9765 35.6002 22.9772 35.6002 22.9769 35.6002H22.9714C20.7175 35.5991 18.5027 35.034 16.5358 33.9615L9.39709 35.8336L11.3077 28.8573C10.1291 26.8159 9.50901 24.4999 9.51004 22.1272C9.51313 14.7045 15.5542 8.66581 22.9769 8.66581C26.579 8.66718 29.9604 10.0693 32.5027 12.6137C35.0454 15.1584 36.4447 18.5408 36.4434 22.1378C36.4403 29.5608 30.3985 35.6002 22.9769 35.6002Z" fill="white"/>
</svg>
