<svg width="134" height="50" viewBox="0 0 134 50" fill="none" xmlns="http://www.w3.org/2000/svg">
<path fill-rule="evenodd" clip-rule="evenodd" d="M29.2969 0H36.0577L25.04 21.5989H33.0528L47.3258 49.5794H40.5648L17.9497 27.9805H0L29.2969 0ZM76.3028 14.0235C76.3028 14.4881 76.2111 14.9221 76.0277 15.3256C75.8564 15.7291 75.6181 16.0836 75.3123 16.3894C75.0067 16.6828 74.6461 16.9213 74.2303 17.1045C73.8269 17.2758 73.3928 17.3614 72.9281 17.3614C72.4636 17.3614 72.0234 17.2758 71.6077 17.1045C71.2042 16.9213 70.8497 16.6828 70.5441 16.3894C70.2506 16.0836 70.0122 15.7291 69.8288 15.3256C69.6577 14.9221 69.572 14.4881 69.572 14.0235C69.572 13.5711 69.6577 13.1432 69.8288 12.7397C70.0122 12.324 70.2506 11.9694 70.5441 11.676C70.8497 11.3703 71.2042 11.1319 71.6077 10.9607C72.0234 10.7773 72.4636 10.6856 72.9281 10.6856C73.3928 10.6856 73.8269 10.7773 74.2303 10.9607C74.6461 11.1319 75.0067 11.3703 75.3123 11.676C75.6181 11.9694 75.8564 12.324 76.0277 12.7397C76.2111 13.1432 76.3028 13.5711 76.3028 14.0235ZM75.4408 39.0023H70.3973V19.3603H75.4408V39.0023ZM68.1781 39.0023H49.7648V12.703H55.0284V33.7389H68.1781V39.0023ZM79.2738 39.0023H84.2806V27.7784C84.2806 27.2648 84.3784 26.7819 84.5741 26.3295C84.7697 25.865 85.0386 25.4614 85.3809 25.1191C85.7233 24.7767 86.1269 24.5078 86.5914 24.3122C87.0561 24.1166 87.5513 24.0187 88.0769 24.0187C88.5905 24.0187 89.0734 24.1166 89.5258 24.3122C89.9781 24.5078 90.3756 24.7767 90.718 25.1191C91.0603 25.4614 91.3292 25.865 91.5248 26.3295C91.7205 26.7819 91.8183 27.2648 91.8183 27.7784V39.0023H96.825V27.7784C96.825 26.568 96.5928 25.4309 96.1281 24.3672C95.6758 23.2913 95.0522 22.3559 94.2575 21.5613C93.4628 20.7542 92.5336 20.1245 91.4698 19.6722C90.4061 19.2075 89.2752 18.9753 88.0769 18.9753C86.9644 18.9753 85.8945 19.177 84.8675 19.5805C83.8527 19.9717 82.9417 20.5342 82.1348 21.2678L80.4842 19.3603H79.2738V39.0023ZM109.993 39.0023C108.783 39.0023 107.646 38.7762 106.582 38.3239C105.518 37.8592 104.583 37.2295 103.776 36.4348C102.981 35.6278 102.352 34.6925 101.887 33.6287C101.435 32.5652 101.208 31.428 101.208 30.2177V24.3855H98.7691V19.397H101.208V11.5476H106.197V19.397H113.79V24.3855H106.197V30.2177C106.197 30.7433 106.295 31.2386 106.49 31.7031C106.686 32.1555 106.955 32.5528 107.297 32.8952C107.64 33.2375 108.043 33.5127 108.508 33.7205C108.972 33.9161 109.467 34.0139 109.993 34.0139H113.79V39.0023H109.993ZM129.745 37.7553C130.21 37.4252 130.644 37.0767 131.047 36.71L132.698 39.0023H133.908V19.3603H128.902V30.2177C128.902 30.7433 128.804 31.2569 128.608 31.7581C128.412 32.2472 128.143 32.6873 127.801 33.0786C127.459 33.4698 127.055 33.7878 126.591 34.0323C126.138 34.2645 125.655 34.3808 125.142 34.3808C124.616 34.3808 124.121 34.2891 123.656 34.1056C123.204 33.9222 122.807 33.6533 122.464 33.2987C122.122 32.9441 121.847 32.5102 121.639 31.9966C121.443 31.4708 121.345 30.8778 121.345 30.2177V19.3603H116.357V30.2177C116.357 31.6236 116.583 32.8952 117.036 34.0323C117.5 35.1572 118.13 36.1169 118.925 36.9117C119.732 37.6942 120.667 38.2994 121.731 38.7273C122.794 39.1553 123.931 39.3692 125.142 39.3692C125.692 39.3692 126.23 39.2958 126.756 39.1491C127.294 39.0147 127.813 38.8312 128.315 38.5989C128.816 38.3544 129.293 38.0731 129.745 37.7553Z" fill="white"/>
</svg>
