<svg width="360" height="200" viewBox="0 0 360 200" fill="none" xmlns="http://www.w3.org/2000/svg">
<rect width="360" height="200" fill="white"/>
<path fill-rule="evenodd" clip-rule="evenodd" d="M119.965 89.352C100.338 63.5594 80.4509 50.3132 60.2927 50.3132C40.1343 50.3132 20.2478 63.5594 0.620305 89.352C0.408357 89.6305 0.292664 89.9784 0.292664 90.3373V109.568C0.292664 109.927 0.408357 110.275 0.620305 110.553C20.2478 136.346 40.1343 149.592 60.2927 149.592C80.4509 149.592 100.338 136.346 119.965 110.553C120.177 110.275 120.293 109.927 120.293 109.568V90.3373C120.293 89.9784 120.177 89.6305 119.965 89.352ZM14.0938 110.506L3.21949 95.0248V109.012C22.5043 134.211 41.5329 146.467 60.2927 146.467C78.9243 146.467 97.821 134.378 116.971 109.526L104.173 91.3069C89.3104 72.2757 74.3069 63.0536 59.167 63.0536C44.2909 63.0536 28.8352 71.9544 12.7919 90.2952L19.6163 97.5817C32.8927 79.1523 46.4415 69.544 60.2927 69.544C74.4767 69.544 88.344 79.6199 101.926 98.9261L110.858 108.463C111.413 109.055 111.432 110.007 110.902 110.624C94.2655 130.002 77.7682 139.977 61.4183 139.977C45.0465 139.977 29.2893 129.978 14.1403 110.568C14.1243 110.548 14.1088 110.527 14.0938 110.506ZM117.366 90.8932V104.881L106.491 89.3998C106.476 89.3784 106.461 89.3575 106.445 89.337C91.296 69.9274 75.5391 59.9286 59.167 59.9286C42.8171 59.9286 26.3197 69.9035 9.68293 89.2815C9.15352 89.8981 9.1729 90.8506 9.72689 91.4421L18.6592 100.979C32.2415 120.286 46.1085 130.361 60.2927 130.361C74.1436 130.361 87.6925 120.753 100.969 102.324L107.793 109.61C91.7502 127.951 76.2942 136.852 61.4183 136.852C46.2787 136.852 31.2747 127.629 16.4127 108.598L3.61453 90.3788C22.7642 65.527 41.661 53.4382 60.2927 53.4382C79.0525 53.4382 98.0809 65.6939 117.366 90.8932ZM60.2927 127.236C47.6932 127.236 34.786 118.411 21.6021 99.9527C34.786 81.4942 47.6932 72.669 60.2927 72.669C72.8921 72.669 85.7994 81.4942 98.983 99.9527C85.7994 118.411 72.8921 127.236 60.2927 127.236ZM156.738 84.4257C149.807 84.4257 144.515 90.0257 144.515 99.9757C144.515 109.926 149.807 115.576 156.738 115.576C163.668 115.576 168.96 109.926 168.96 99.9757C168.96 90.0257 163.668 84.4257 156.738 84.4257ZM156.738 81.2257C166.338 81.2257 172.285 88.9257 172.285 99.9757C172.285 111.026 166.338 118.776 156.738 118.776C147.138 118.776 141.19 111.026 141.19 99.9757C141.19 88.9257 147.138 81.2257 156.738 81.2257ZM177.677 91.2257H180.58V95.7757C181.844 93.2257 184.233 90.7757 188.962 90.7757C194.91 90.7757 197.439 94.5757 197.439 101.176V118.126H194.535V102.026C194.535 96.9757 193.271 93.5757 188.213 93.5757C183.858 93.5757 180.58 97.4757 180.58 103.176V118.126H177.677V91.2257ZM224.537 110.076C223.273 115.676 219.198 118.776 213.626 118.776C206.274 118.776 201.731 113.126 201.731 104.776C201.731 96.1257 206.789 90.7757 213.532 90.7757C220.603 90.7757 225.146 97.1757 224.771 105.576H204.728C204.869 112.126 208.662 115.926 213.813 115.926C217.747 115.926 220.51 113.826 221.493 110.076H224.537ZM221.587 102.726C221.587 98.1757 218.543 93.5757 213.485 93.5757C208.802 93.5757 205.431 96.7257 204.822 102.726H221.587ZM243.719 84.4257C236.789 84.4257 231.497 90.0257 231.497 99.9757C231.497 109.926 236.789 115.576 243.719 115.576C250.65 115.576 255.942 109.926 255.942 99.9757C255.942 90.0257 250.65 84.4257 243.719 84.4257ZM243.719 81.2257C253.319 81.2257 259.267 88.9257 259.267 99.9757C259.267 111.026 253.319 118.776 243.719 118.776C234.119 118.776 228.172 111.026 228.172 99.9757C228.172 88.9257 234.119 81.2257 243.719 81.2257ZM275.476 93.5757C271.683 93.5757 267.375 96.7757 267.375 104.776C267.375 112.776 271.683 115.976 275.476 115.976C280.159 115.976 283.484 111.926 283.484 104.776C283.484 97.6257 280.159 93.5757 275.476 93.5757ZM276.085 90.7757C281.892 90.7757 286.621 95.8257 286.621 104.776C286.621 113.726 281.892 118.776 276.085 118.776C272.338 118.776 269.388 116.926 267.562 113.676V126.876H264.658V91.2257H267.562V95.8257C269.388 92.6257 272.338 90.7757 276.085 90.7757ZM288.643 91.2257H292.811V85.1757H295.761V91.2257H300.725V93.9257H295.761V111.126C295.761 114.576 295.855 115.326 299.227 115.326H300.725V118.126H298.337C293.841 118.126 292.811 117.076 292.811 111.726V93.9257H288.643V91.2257ZM305.725 118.126V91.2257H308.629V118.126H305.725ZM305.725 86.8257V81.8757H308.629V86.8257H305.725ZM313.682 104.776C313.682 96.4257 317.897 90.7757 325.249 90.7757C331.009 90.7757 334.849 95.0757 335.598 99.8757H332.554C331.618 95.8257 328.668 93.6257 324.968 93.6257C320.66 93.6257 316.773 97.3257 316.773 104.726C316.773 112.376 320.66 115.926 325.015 115.926C329.323 115.926 331.993 112.976 332.742 109.626H335.833C334.849 115.176 330.588 118.776 325.015 118.776C317.897 118.776 313.682 113.026 313.682 104.776ZM349.414 90.7257C354.846 90.7257 358.499 94.3257 359.108 98.5757H356.064C355.455 95.3757 352.692 93.4757 349.133 93.4757C346.37 93.4757 342.718 94.6257 342.718 97.8757C342.718 100.526 344.638 101.926 347.447 102.476L351.006 103.176C355.127 103.976 359.717 105.476 359.717 110.576C359.717 115.926 355.174 118.776 349.695 118.776C344.497 118.776 340.002 116.026 339.252 109.876H342.296C342.811 114.076 346.089 116.026 349.929 116.026C352.973 116.026 356.766 114.676 356.766 111.076C356.766 107.926 353.957 106.826 350.538 106.126L346.604 105.326C342.999 104.526 339.767 102.376 339.767 98.1257C339.767 93.8757 343.748 90.7257 349.414 90.7257Z" fill="#05CEFA"/>
</svg>
